<svg id="Capa_1" enable-background="new 0 0 512 512" height="512" viewBox="0 0 512 512" width="512" xmlns="http://www.w3.org/2000/svg"><path d="m481.15 185.932c0-102.523-83.408-185.932-185.931-185.932-40.781 0-78.537 13.197-109.222 35.545-4.968-20.376-23.376-35.545-45.264-35.545-9.712 0-19.053 2.993-26.872 8.525-3.911-1.092-7.956-1.644-12.087-1.644-11.802 0-22.95 4.541-31.392 12.785-6.466 6.315-10.797 14.267-12.595 22.939-15.809 4.993-26.937 19.667-26.937 36.936 0 21.368 17.384 38.752 38.752 38.752h52.418c-8.219 20.972-12.734 43.788-12.734 67.639 0 74.341 43.856 138.631 107.055 168.359l8.404 47.749h-9.292c-3.033 0-5.902 1.377-7.801 3.743-1.897 2.366-2.619 5.466-1.961 8.427l20 89.96c1.018 4.575 5.075 7.83 9.762 7.83h119.531c4.687 0 8.744-3.255 9.762-7.83l20-89.96c.658-2.961-.063-6.061-1.961-8.427s-4.768-3.743-7.801-3.743h-9.292l8.403-47.748c63.199-29.728 107.055-94.019 107.055-168.36zm-175.931 164.984v-329.968c20.53 3.906 39.841 19.783 55.208 45.684 18.813 31.708 29.173 74.076 29.173 119.3s-10.36 87.592-29.173 119.3c-15.367 25.9-34.678 41.778-55.208 45.684zm-20-329.968v329.968c-20.53-3.906-39.841-19.783-55.208-45.684-18.813-31.708-29.173-74.076-29.173-119.3s10.36-87.593 29.173-119.3c15.366-25.901 34.678-41.778 55.208-45.684zm175.931 164.984c0 67.974-41.085 126.532-99.726 152.148 5.769-6.637 11.193-14.2 16.202-22.643 20.618-34.75 31.973-80.743 31.973-129.505s-11.354-94.754-31.973-129.505c-5.01-8.444-10.433-16.006-16.202-22.643 58.642 25.615 99.726 84.174 99.726 152.148zm-391.548-87.639c-10.34 0-18.752-8.412-18.752-18.752 0-9.728 7.288-17.753 16.952-18.667 5.04-.477 8.929-4.646 9.055-9.708.332-13.39 11.511-24.284 24.918-24.284 3.484 0 6.852.702 10.007 2.087 3.655 1.604 7.914.88 10.835-1.841 4.933-4.597 11.366-7.128 18.116-7.128 14.658 0 26.583 11.922 26.583 26.576 0 1.091-.066 2.189-.198 3.264-.063.511-.085 1.017-.071 1.516-14.269 13.596-26.386 29.432-35.781 46.937zm59.684 87.639c0-67.974 41.084-126.532 99.725-152.148-5.769 6.637-11.192 14.199-16.202 22.643-20.617 34.75-31.972 80.743-31.972 129.505s11.354 94.755 31.972 129.505c5.01 8.443 10.433 16.006 16.202 22.643-58.64-25.616-99.725-84.174-99.725-152.148zm108.88 176.979c14.952 4.831 30.726 7.817 47.053 8.686v30.442h-40.166zm108.798 129.089h-103.49l-15.553-69.96h134.596zm-1.579-89.96h-40.166v-30.442c16.326-.869 32.1-3.855 47.052-8.686z"/></svg>